<svg width="512" height="512" viewBox="0 0 512 512" fill="none" xmlns="http://www.w3.org/2000/svg">
  <rect width="512" height="512" rx="110" fill="#EF4444"/>
  <path d="M256 76C256 76 142 204 142 304C142 383 193 436 256 436C319 436 370 383 370 304C370 204 256 76 256 76Z" fill="white"/>
  <path d="M256 350C250 350 244 348 239 343C218 324 187 299 187 264C187 237 207 218 231 218C244 218 253 224 256 229C259 224 268 218 281 218C305 218 325 237 325 264C325 299 294 324 273 343C268 348 262 350 256 350Z" fill="#EF4444"/>
</svg>